<svg viewBox="0 0 138 153" fill="none" xmlns="http://www.w3.org/2000/svg">
<path d="M8.52558 91.0195C7.10631 91.0244 5.71481 90.6264 4.51273 89.8719C3.31064 89.1173 2.34733 88.0372 1.7347 86.757C1.12207 85.4767 0.885274 84.0489 1.05182 82.6395C1.21837 81.23 1.78143 79.8967 2.67558 78.7945L76.9256 2.29453C77.4825 1.65164 78.2415 1.21721 79.0779 1.06253C79.9144 0.907852 80.7785 1.04213 81.5285 1.44331C82.2786 1.8445 82.87 2.48876 83.2056 3.27034C83.5412 4.05193 83.6012 4.92439 83.3756 5.74453L68.9756 50.8945C68.551 52.031 68.4084 53.2534 68.56 54.4571C68.7117 55.6607 69.153 56.8096 69.8463 57.8052C70.5395 58.8008 71.4639 59.6134 72.5401 60.1732C73.6164 60.7331 74.8124 61.0235 76.0256 61.0195H128.526C129.945 61.0147 131.336 61.4127 132.538 62.1672C133.74 62.9217 134.704 64.0019 135.316 65.2821C135.929 66.5623 136.166 67.9901 135.999 69.3996C135.833 70.8091 135.27 72.1423 134.376 73.2445L60.1256 149.745C59.5686 150.387 58.8096 150.822 57.9732 150.977C57.1368 151.131 56.2726 150.997 55.5226 150.596C54.7726 150.195 54.1812 149.55 53.8456 148.769C53.5099 147.987 53.45 147.115 53.6756 146.295L68.0756 101.145C68.5002 100.008 68.6428 98.7856 68.4911 97.582C68.3395 96.3783 67.8981 95.2294 67.2049 94.2338C66.5117 93.2382 65.5873 92.4257 64.511 91.8658C63.4347 91.306 62.2387 91.0156 61.0256 91.0195H8.52558Z" fill="#0093B8" stroke="#0093B8" stroke-width="2" stroke-linecap="round" stroke-linejoin="round"/>
</svg>

